<svg id="Layer_1" data-name="Layer 1" xmlns="http://www.w3.org/2000/svg" viewBox="0 0 155.4 43.97"><defs><style>.cls-1{fill:#1f8be9;}.cls-2{isolation:isolate;}.cls-3{fill:#fff;}</style></defs><g id="Group_1" data-name="Group 1"><path id="Path_1" data-name="Path 1" class="cls-1" d="M914,524.76a14.69,14.69,0,0,0-18.21-2l0,0-.07,0-.06,0-.05,0-.07.06,0,0-.06.07,0,0s-.05,0-.06.08l0,.06,0,.07,0,.07,0,.07,0,.09,0,.05a.46.46,0,0,0,0,.09.15.15,0,0,0,0,.06s0,0,0,.08a.15.15,0,0,1,0,.07v.07a.33.33,0,0,0,0,.1v10a1.59,1.59,0,1,0,3.17,0V525a11.51,11.51,0,0,1,13.53,18.3l-1.07,1.07-16.57,16.57a1.19,1.19,0,0,1-1.66,0l-16.57-16.57-1.06-1.07a11.51,11.51,0,0,1,14.26-17.88,1.59,1.59,0,0,0,1.7-2.68,14.69,14.69,0,0,0-18.21,22.81l1.07,1.06,16.57,16.57a4.33,4.33,0,0,0,6.14,0l16.57-16.56,1.07-1.07a14.7,14.7,0,0,0,0-20.77Z" transform="translate(-868.24 -520.45)"/><path id="Path_2" data-name="Path 2" class="cls-1" d="M888.31,531.83h0v5h-5.1a1.59,1.59,0,0,0-1.59,1.58h0v6.7a1.59,1.59,0,0,0,1.59,1.59h5.1v5.11a1.59,1.59,0,0,0,1.59,1.59h6.7a1.59,1.59,0,0,0,1.59-1.59v-5.11h5.1a1.59,1.59,0,0,0,1.59-1.59v-6.7a1.59,1.59,0,0,0-1.59-1.59h-6.7a1.59,1.59,0,0,0,0,3.18h5.11v3.52h-5.11a1.58,1.58,0,0,0-1.58,1.58v5.11h-3.52v-5.11a1.59,1.59,0,0,0-1.59-1.58h-5.11V540h5.11a1.59,1.59,0,0,0,1.59-1.59v-5h.78a1.59,1.59,0,1,0,0-3.18H889.9a1.6,1.6,0,0,0-1.59,1.59Z" transform="translate(-868.24 -520.45)"/></g><g class="cls-2"><path class="cls-3" d="M934.54,553.84a2,2,0,0,1-1.56-.57,2.22,2.22,0,0,1-.54-1.59V534.31a2.11,2.11,0,0,1,.58-1.59,2.21,2.21,0,0,1,1.61-.57,2.55,2.55,0,0,1,1.42.34,3.2,3.2,0,0,1,1,1.19L944,546.34h-1l6.93-12.66a3.19,3.19,0,0,1,1-1.19,2.52,2.52,0,0,1,1.4-.34,2.09,2.09,0,0,1,1.57.57,2.19,2.19,0,0,1,.56,1.59v17.37a2.22,2.22,0,0,1-.54,1.59,2,2,0,0,1-1.56.57,2.11,2.11,0,0,1-1.58-.57,2.18,2.18,0,0,1-.55-1.59V539.53h.66l-5.58,10a2.94,2.94,0,0,1-.77.85,2.09,2.09,0,0,1-2.14,0,2.81,2.81,0,0,1-.75-.84l-5.64-10h.72v12.18a2.26,2.26,0,0,1-.53,1.59A2,2,0,0,1,934.54,553.84Z" transform="translate(-868.24 -520.45)"/><path class="cls-3" d="M961.09,553.57a2.2,2.2,0,0,1-2.43-2.43V534.85a2.2,2.2,0,0,1,2.43-2.43h10.47a1.82,1.82,0,1,1,0,3.63H963.1v5h7.77a1.64,1.64,0,0,1,1.86,1.83,1.84,1.84,0,0,1-.47,1.36,1.88,1.88,0,0,1-1.39.47H963.1v5.28h8.46a1.82,1.82,0,1,1,0,3.63Z" transform="translate(-868.24 -520.45)"/><path class="cls-3" d="M979.24,553.57a2.2,2.2,0,0,1-2.43-2.43V534.85a2.2,2.2,0,0,1,2.43-2.43h5.85q5.43,0,8.38,2.74t3,7.82a12.35,12.35,0,0,1-.77,4.51,8.9,8.9,0,0,1-2.2,3.32,9.52,9.52,0,0,1-3.54,2.05,15.16,15.16,0,0,1-4.83.71Zm2.22-3.81h3.36a9.42,9.42,0,0,0,3-.42,5,5,0,0,0,3.36-3.38,9.53,9.53,0,0,0,.42-3,6,6,0,0,0-6.75-6.75h-3.36Z" transform="translate(-868.24 -520.45)"/><path class="cls-3" d="M1002.37,553.84a2.29,2.29,0,0,1-1.74-.63,2.46,2.46,0,0,1-.6-1.77V534.55a2.46,2.46,0,0,1,.6-1.77,2.29,2.29,0,0,1,1.74-.63,2.25,2.25,0,0,1,1.71.63,2.46,2.46,0,0,1,.6,1.77v16.89a2.51,2.51,0,0,1-.59,1.77A2.23,2.23,0,0,1,1002.37,553.84Z" transform="translate(-868.24 -520.45)"/><path class="cls-3" d="M1011.31,553.57a2.35,2.35,0,0,1-1.76-.63,2.38,2.38,0,0,1-.61-1.74V534.73a2.4,2.4,0,0,1,.6-1.77,2.36,2.36,0,0,1,1.74-.6,2.31,2.31,0,0,1,1.71.6,2.4,2.4,0,0,1,.6,1.77v14.91h8a2,2,0,0,1,1.48.51,1.92,1.92,0,0,1,.53,1.44,2,2,0,0,1-.53,1.47,2,2,0,0,1-1.48.51Z" transform="translate(-868.24 -520.45)"/></g></svg>