<svg xmlns="http://www.w3.org/2000/svg" viewBox="0 0 174.6 25.2"><defs><style>.cls-1{fill:#e5ae49;}</style></defs><g id="Layer_2" data-name="Layer 2"><g id="Layer_1-2" data-name="Layer 1"><path d="M7.09,0V25.2H0V0Z"/><path d="M29.66,0V25.2h-19V0h7.16L23,11.12l-.21-2.55V0ZM21.92,20.52l-4.53-9.15.11,2.56v6.59Z"/><path d="M50.4,5.44H45.07V25.2H37.94V5.44H32.65V0H50.4Z"/><path d="M60.44,5.44v5.47h5.11v5.43H60.44v3.42h8.25V25.2H53.35V0H68.69V5.44Z"/><path d="M83.88,25.2l-4.75-6.59V25.2H72V0H90V16.52H85.21l6.3,8.68Zm-1-8.68V5.44H79.13V16.52Z"/><path d="M100.73,0V25.2H93.64V0Z"/><path class="cls-1" d="M122.25,0V25.2h-7.12V21.35h-3.78V25.2h-7.1V0Zm-7.12,16V5.44h-3.78V16Z"/><path class="cls-1" d="M137.63,25.2l-4.76-6.59V25.2h-7.09V0h18V16.52H139l6.3,8.68Zm-1-8.68V5.44h-3.78V16.52Z"/><path class="cls-1" d="M164.59,5.44h-5.33V25.2h-7.13V5.44h-5.29V0h17.75Z"/><path class="cls-1" d="M174.6,19.83V25.2h-7.06V19.83Z"/></g></g></svg>